# Blender 4.1.1
# www.blender.org
mtllib BGAXE.mtl
o Cube
v 0.118975 2.637764 -0.775113
v 0.118975 -3.169798 -0.644577
v 0.001541 1.664674 0.806758
v 0.118975 -1.652324 -0.354642
v -0.118975 2.637764 -0.775113
v -0.118975 -3.169798 -0.644577
v -0.004868 1.664674 0.806758
v -0.118975 -1.652324 -0.354642
v -0.118975 -3.175731 -0.215583
v 0.000000 -3.169798 -0.644577
v 0.118975 0.305131 -0.628666
v -0.118975 2.168889 -0.495724
v 0.118975 2.076077 -0.501525
v -0.118975 0.305131 -0.628666
v -0.000906 1.664674 0.806758
v 0.118975 2.795990 0.431166
v 0.000000 -1.652324 -0.354642
v -0.118975 2.795990 0.431166
v 0.000000 2.637764 -0.775113
v 0.118975 -3.175731 -0.215583
v 0.000000 0.305131 -0.628666
v 0.118975 0.285445 -0.201780
v 0.000000 -3.175731 -0.215583
v -0.118975 0.285445 -0.201780
v 0.000000 2.168889 -0.495724
v 0.000000 2.795990 0.431166
v -0.118975 -1.693665 -0.381070
v -0.059487 -3.169798 -0.644577
v 0.118975 -1.312402 -0.628666
v -0.118975 1.807405 0.324169
v 0.118975 -0.111566 -0.390077
v -0.118975 -1.312402 -0.628666
v -0.002478 1.664674 0.806758
v 0.009972 2.888947 0.811800
v 0.059487 -1.652324 -0.354642
v -0.118975 2.689187 -0.123517
v 0.059487 2.637764 -0.775113
v 0.118975 -3.217266 -0.445902
v -0.118975 -3.217266 -0.445902
v 0.059487 -3.169798 -0.644577
v 0.118975 1.932553 -0.632622
v -0.118975 -0.111566 -0.390077
v 0.112348 1.807405 0.324169
v -0.118975 1.932553 -0.632622
v -0.011766 1.664674 0.806758
v 0.118975 2.689187 -0.123517
v -0.059487 -1.652324 -0.354642
v 0.003563 2.888947 0.811800
v -0.059487 2.637764 -0.775113
v 0.118975 -1.693665 -0.381070
v 0.059487 0.305131 -0.628666
v -0.059487 0.305131 -0.628666
v 0.000000 -1.312402 -0.628666
v 0.000000 1.932553 -0.632622
v 0.118975 1.967032 -0.586019
v 0.118975 0.000000 -0.410302
v 0.118975 -1.332088 -0.201780
v 0.118975 1.902978 -0.207581
v 0.000000 -1.693665 -0.381070
v 0.000000 -3.217266 -0.445902
v -0.059487 -3.175731 -0.215583
v 0.059487 -3.175731 -0.215583
v -0.118975 0.000000 -0.410302
v -0.118975 2.189394 -0.516410
v -0.118975 -1.332088 -0.201780
v -0.118975 1.902978 -0.201780
v -0.059487 2.168889 -0.495724
v 0.059487 2.168889 -0.495724
v 0.000000 -0.111566 -0.390077
v 0.000000 1.807405 0.324169
v 0.007525 2.888947 0.811800
v 0.000000 2.689187 -0.123517
v 0.059487 2.795990 0.431166
v -0.059487 2.795990 0.431166
v -0.059487 2.689187 -0.123517
v 0.059487 2.689187 -0.123517
v 0.007313 2.888947 0.811800
v 0.059487 1.807405 0.324169
v 0.059487 -0.111566 -0.390077
v -0.059487 -0.111566 -0.390077
v -0.118975 1.872673 -0.003064
v -0.118975 -0.076131 -0.381070
v -0.118975 -1.617533 -0.410302
v 0.059487 -3.217266 -0.445902
v -0.059487 -3.217266 -0.445902
v -0.059487 -1.693665 -0.381070
v 0.118975 1.903704 -0.209209
v 0.118975 -1.617533 -0.410302
v 0.118975 -0.076131 -0.381070
v -0.059487 1.932553 -0.632622
v -0.059487 -1.312402 -0.628666
v 0.059487 -1.312402 -0.628666
v 0.059487 1.932553 -0.632622
v 0.118975 1.867839 -0.004675
v 0.059487 -1.693665 -0.381070
v -0.118975 1.617534 -0.410302
v -0.059487 1.807405 0.324169
v 0.003351 2.888947 0.811800
v -0.118975 2.671386 -0.283178
v 0.089231 2.637764 -0.775113
v -0.029744 2.637764 -0.775113
v 0.029744 2.637764 -0.775113
v 0.118975 1.943984 -0.778036
v -0.118975 1.943984 -0.778036
v 0.118975 2.671386 -0.283178
v -0.089231 2.637764 -0.775113
v 0.000000 1.943984 -0.778036
v 0.000000 2.671386 -0.283178
v -0.059487 2.671386 -0.283178
v -0.029744 2.689187 -0.123517
v -0.089231 2.689187 -0.123517
v 0.059487 2.671386 -0.283178
v 0.089231 2.689187 -0.123517
v 0.029744 2.689187 -0.123517
v 0.118975 1.909317 -0.364797
v 0.118975 2.426300 -0.410302
v -0.029744 1.932553 -0.632622
v -0.089231 1.932553 -0.632622
v -0.059487 1.943984 -0.778036
v 0.089231 1.932553 -0.632622
v 0.029744 1.932553 -0.632622
v 0.059487 1.943984 -0.778036
v -0.118975 1.770099 -0.519484
v -0.118975 2.426300 -0.410302
v 0.029744 1.943984 -0.778036
v -0.089231 1.943984 -0.778036
v 0.118975 2.502583 -0.567468
v 0.029744 2.671386 -0.283178
v 0.089231 2.671386 -0.283178
v -0.089231 2.671386 -0.283178
v -0.029744 2.671386 -0.283178
v -0.029744 1.943984 -0.778036
v 0.089231 1.943984 -0.778036
v -0.118975 2.502583 -0.567468
vn -0.0000 -0.0041 1.0000
vn -0.0000 -0.9589 -0.2836
vn -1.0000 -0.0000 -0.0000
vn -0.0000 -0.5386 0.8426
vn 0.9884 0.0261 0.1496
vn -0.0000 0.0042 -1.0000
vn -0.0000 -0.0000 -1.0000
vn 1.0000 -0.0000 -0.0000
vn -0.0000 -0.9841 0.1775
vn -0.9710 -0.1018 0.2164
vn -0.0000 0.0463 0.9989
vn -0.0000 0.0041 -1.0000
vn -0.0000 0.9820 -0.1891
vn -0.0000 0.9938 -0.1108
vn -0.0000 0.9714 -0.2372
vn -0.0000 -0.9150 -0.4034
vn -0.6195 -0.7322 -0.2829
vn -0.0000 0.0230 0.9997
vn 0.0862 0.0483 0.9951
vn -0.9876 0.0441 0.1505
vn -0.0000 -0.9726 -0.2324
vn -0.0000 0.1110 0.9938
vn -0.0000 -0.0024 -1.0000
vn -0.0000 0.0086 -1.0000
vn -0.9995 -0.0299 -0.0125
vn 0.9774 -0.0899 0.1915
vn -0.0000 -0.9969 -0.0784
vn -0.0000 0.9977 -0.0682
vt 0.812500 0.687500
vt 0.875000 0.687500
vt 0.875000 0.750000
vt 0.812500 0.750000
vt 0.562500 0.937500
vt 0.625000 0.937500
vt 0.625000 1.000000
vt 0.562500 1.000000
vt 0.593750 0.218750
vt 0.625000 0.218750
vt 0.625000 0.250000
vt 0.593750 0.250000
vt 0.312500 0.687500
vt 0.375000 0.687500
vt 0.375000 0.750000
vt 0.312500 0.750000
vt 0.778065 0.801090
vt 0.797746 0.801090
vt 0.797746 0.811815
vt 0.778065 0.811815
vt 0.593750 0.468750
vt 0.625000 0.468750
vt 0.625000 0.500000
vt 0.593750 0.500000
vt 0.437500 0.437500
vt 0.500000 0.437500
vt 0.500000 0.500000
vt 0.437500 0.500000
vt 0.437500 0.312500
vt 0.500000 0.312500
vt 0.500000 0.375000
vt 0.437500 0.375000
vt 0.593750 0.343750
vt 0.625000 0.343750
vt 0.625000 0.375000
vt 0.593750 0.375000
vt 0.437500 0.687500
vt 0.500000 0.687500
vt 0.500000 0.750000
vt 0.437500 0.750000
vt 0.437500 0.562500
vt 0.500000 0.562500
vt 0.500000 0.625000
vt 0.437500 0.625000
vt 0.778065 0.779639
vt 0.787905 0.779639
vt 0.797746 0.779639
vt 0.797746 0.790365
vt 0.778065 0.790365
vt 0.187500 0.687500
vt 0.250000 0.687500
vt 0.250000 0.750000
vt 0.187500 0.750000
vt 0.187500 0.562500
vt 0.250000 0.562500
vt 0.250000 0.625000
vt 0.187500 0.625000
vt 0.312500 0.562500
vt 0.375000 0.562500
vt 0.375000 0.625000
vt 0.312500 0.625000
vt 0.437500 0.187500
vt 0.500000 0.187500
vt 0.500000 0.250000
vt 0.437500 0.250000
vt 0.437500 0.062500
vt 0.500000 0.062500
vt 0.500000 0.125000
vt 0.437500 0.125000
vt 0.562500 0.062500
vt 0.625000 0.062500
vt 0.625000 0.125000
vt 0.562500 0.125000
vt 0.437500 0.937500
vt 0.500000 0.937500
vt 0.500000 1.000000
vt 0.437500 1.000000
vt 0.437500 0.812500
vt 0.500000 0.812500
vt 0.500000 0.875000
vt 0.437500 0.875000
vt 0.562500 0.812500
vt 0.625000 0.812500
vt 0.625000 0.875000
vt 0.562500 0.875000
vt 0.687500 0.687500
vt 0.750000 0.687500
vt 0.750000 0.750000
vt 0.687500 0.750000
vt 0.687500 0.562500
vt 0.718750 0.562500
vt 0.750000 0.562500
vt 0.750000 0.625000
vt 0.687500 0.625000
vt 0.812500 0.562500
vt 0.843750 0.562500
vt 0.875000 0.562500
vt 0.875000 0.625000
vt 0.812500 0.625000
vt 0.781250 0.562500
vt 0.781250 0.531250
vt 0.812500 0.531250
vt 0.843750 0.531250
vt 0.875000 0.531250
vt 0.625000 0.562500
vt 0.656250 0.562500
vt 0.625000 0.625000
vt 0.656250 0.531250
vt 0.687500 0.531250
vt 0.718750 0.531250
vt 0.750000 0.531250
vt 0.625000 0.687500
vt 0.625000 0.750000
vt 0.562500 0.750000
vt 0.375000 0.812500
vt 0.375000 0.875000
vt 0.375000 0.937500
vt 0.375000 1.000000
vt 0.500000 0.000000
vt 0.562500 0.000000
vt 0.625000 0.000000
vt 0.375000 0.062500
vt 0.375000 0.125000
vt 0.375000 0.000000
vt 0.437500 0.000000
vt 0.375000 0.187500
vt 0.375000 0.250000
vt 0.250000 0.500000
vt 0.312500 0.500000
vt 0.375000 0.500000
vt 0.125000 0.562500
vt 0.125000 0.625000
vt 0.125000 0.500000
vt 0.187500 0.500000
vt 0.125000 0.687500
vt 0.125000 0.750000
vt 0.562500 0.562500
vt 0.562500 0.625000
vt 0.562500 0.500000
vt 0.562500 0.531250
vt 0.787905 0.774276
vt 0.797746 0.774276
vt 0.562500 0.312500
vt 0.562500 0.343750
vt 0.562500 0.375000
vt 0.562500 0.250000
vt 0.562500 0.281250
vt 0.593750 0.281250
vt 0.625000 0.281250
vt 0.625000 0.312500
vt 0.593750 0.312500
vt 0.375000 0.312500
vt 0.375000 0.375000
vt 0.375000 0.437500
vt 0.562500 0.437500
vt 0.562500 0.468750
vt 0.562500 0.406250
vt 0.593750 0.406250
vt 0.625000 0.406250
vt 0.625000 0.437500
vt 0.593750 0.437500
vt 0.758383 0.801090
vt 0.758383 0.811815
vt 0.562500 0.687500
vt 0.562500 0.187500
vt 0.562500 0.218750
vt 0.625000 0.187500
vt 0.593750 0.187500
vt 0.778065 0.774276
vt 0.778065 0.768914
vt 0.787905 0.768914
vt 0.797746 0.768914
vt 0.687500 0.500000
vt 0.718750 0.500000
vt 0.750000 0.500000
vt 0.625000 0.531250
vt 0.656250 0.500000
vt 0.812500 0.500000
vt 0.843750 0.500000
vt 0.875000 0.500000
vt 0.781250 0.500000
s 0
usemtl Material
f 98/1/1 48/2/1 7/3/1 33/4/1
f 97/5/2 33/6/2 7/7/2 30/8/2
f 134/9/3 99/10/3 5/11/3 104/12/3
f 95/13/4 50/14/4 4/15/4 35/16/4
f 94/17/5 34/18/5 3/19/5 43/20/5
f 133/21/6 100/22/6 1/23/6 103/24/6
f 92/25/7 51/26/7 11/27/7 29/28/7
f 91/29/7 52/30/7 21/31/7 53/32/7
f 132/33/6 101/34/6 19/35/6 107/36/6
f 89/37/8 55/38/8 13/39/8 31/40/8
f 88/41/8 56/42/8 22/43/8 57/44/8
f 87/45/8 116/46/8 46/47/8 16/48/8 58/49/8
f 86/50/4 59/51/4 17/52/4 47/53/4
f 85/54/9 60/55/9 23/56/9 61/57/9
f 84/58/9 38/59/9 20/60/9 62/61/9
f 83/62/3 63/63/3 14/64/3 32/65/3
f 82/66/8 64/67/8 24/68/8 65/69/8
f 81/70/10 48/71/10 18/72/10 66/73/10
f 80/74/11 67/75/11 12/76/11 42/77/11
f 79/78/11 68/79/11 25/80/11 69/81/11
f 78/82/2 45/83/2 15/84/2 70/85/2
f 77/86/12 71/87/12 15/88/12 45/89/12
f 76/90/13 114/91/13 72/92/13 26/93/13 73/94/13
f 75/95/13 111/96/13 36/97/13 18/98/13 74/99/13
f 72/92/13 110/100/13 75/95/13 74/99/13 26/93/13
f 131/101/14 109/102/14 75/95/14 110/100/14
f 130/103/14 99/104/14 36/97/14 111/96/14
f 46/105/13 113/106/13 76/90/13 73/94/13 16/107/13
f 129/108/14 112/109/14 76/90/14 113/106/14
f 128/110/14 108/111/14 72/92/14 114/91/14
f 34/112/1 77/86/1 45/89/1 3/113/1
f 16/107/15 73/94/15 77/86/15 34/112/15
f 73/94/15 26/93/15 71/87/15 77/86/15
f 68/79/16 78/82/16 70/85/16 25/80/16
f 13/39/17 43/114/17 78/82/17 68/79/17
f 43/114/2 3/113/2 45/83/2 78/82/2
f 35/115/18 79/78/18 69/81/18 17/116/18
f 4/15/18 31/40/18 79/78/18 35/115/18
f 31/40/19 13/39/19 68/79/19 79/78/19
f 47/117/18 80/74/18 42/77/18 8/118/18
f 17/116/18 69/81/18 80/74/18 47/117/18
f 69/81/11 25/80/11 67/75/11 80/74/11
f 64/67/8 81/70/8 66/73/8 24/68/8
f 12/119/8 30/120/8 81/70/8 64/67/8
f 30/120/20 7/121/20 48/71/20 81/70/20
f 27/122/8 82/66/8 65/69/8 9/123/8
f 8/124/3 42/125/3 82/66/3 27/122/3
f 42/125/3 12/119/3 64/67/3 82/66/3
f 39/126/3 83/62/3 32/65/3 6/127/3
f 9/123/3 65/69/3 83/62/3 39/126/3
f 65/69/3 24/68/3 63/63/3 83/62/3
f 60/55/9 84/58/9 62/61/9 23/56/9
f 10/128/21 40/129/21 84/58/21 60/55/21
f 40/129/21 2/130/21 38/59/21 84/58/21
f 39/131/9 85/54/9 61/57/9 9/132/9
f 6/133/21 28/134/21 85/54/21 39/131/21
f 28/134/21 10/128/21 60/55/21 85/54/21
f 27/135/4 86/50/4 47/53/4 8/136/4
f 9/132/22 61/57/22 86/50/22 27/135/22
f 61/57/22 23/56/22 59/51/22 86/50/22
f 56/42/8 87/137/8 58/138/8 22/43/8
f 11/27/8 41/139/8 115/140/8 87/137/8 56/42/8
f 127/141/8 105/142/8 46/47/8 116/46/8
f 38/59/8 88/41/8 57/44/8 20/60/8
f 2/130/8 29/28/8 88/41/8 38/59/8
f 29/28/8 11/27/8 56/42/8 88/41/8
f 50/14/8 89/37/8 31/40/8 4/15/8
f 20/60/3 57/44/3 89/37/3 50/14/3
f 57/44/3 22/43/3 55/38/3 89/37/3
f 52/30/23 90/143/23 117/144/23 54/145/23 21/31/23
f 14/64/23 44/146/23 118/147/23 90/143/23 52/30/23
f 126/148/6 106/149/6 49/150/6 119/151/6
f 28/152/24 91/29/24 53/32/24 10/153/24
f 6/127/24 32/65/24 91/29/24 28/152/24
f 32/65/7 14/64/7 52/30/7 91/29/7
f 40/154/24 92/25/24 29/28/24 2/130/24
f 10/153/24 53/32/24 92/25/24 40/154/24
f 53/32/7 21/31/7 51/26/7 92/25/7
f 51/26/23 93/155/23 120/156/23 41/139/23 11/27/23
f 21/31/23 54/145/23 121/157/23 93/155/23 51/26/23
f 125/158/6 102/159/6 37/160/6 122/161/6
f 55/162/25 94/17/25 43/20/25 13/163/25
f 22/43/3 58/138/3 94/164/3 55/38/3
f 58/49/26 16/48/26 34/18/26 94/17/26
f 59/51/4 95/13/4 35/16/4 17/52/4
f 23/56/22 62/61/22 95/13/22 59/51/22
f 62/61/22 20/60/22 50/14/22 95/13/22
f 63/63/3 96/165/3 123/166/3 44/146/3 14/64/3
f 24/68/3 66/73/3 96/165/3 63/63/3
f 66/73/3 18/72/3 36/167/3 124/168/3 96/165/3
f 67/75/16 97/5/16 30/8/16 12/76/16
f 25/80/16 70/85/16 97/5/16 67/75/16
f 70/85/2 15/84/2 33/6/2 97/5/2
f 71/87/1 98/1/1 33/4/1 15/88/1
f 26/93/15 74/99/15 98/1/15 71/87/15
f 74/99/15 18/98/15 48/2/15 98/1/15
f 121/157/27 125/158/27 122/161/27 93/155/27
f 54/145/27 107/36/27 125/158/27 121/157/27
f 107/36/6 19/35/6 102/159/6 125/158/6
f 118/147/27 126/148/27 119/151/27 90/143/27
f 44/146/27 104/12/27 126/148/27 118/147/27
f 104/12/6 5/11/6 106/149/6 126/148/6
f 115/169/8 127/141/8 116/46/8 87/45/8
f 41/170/8 103/171/8 127/141/8 115/169/8
f 103/171/8 1/172/8 105/142/8 127/141/8
f 112/109/14 128/110/14 114/91/14 76/90/14
f 37/173/28 102/174/28 128/110/28 112/109/28
f 102/174/28 19/175/28 108/111/28 128/110/28
f 105/176/14 129/108/14 113/106/14 46/105/14
f 1/23/28 100/177/28 129/108/28 105/176/28
f 100/177/28 37/173/28 112/109/28 129/108/28
f 109/102/14 130/103/14 111/96/14 75/95/14
f 49/178/28 106/179/28 130/103/28 109/102/28
f 106/179/28 5/180/28 99/104/28 130/103/28
f 108/111/14 131/101/14 110/100/14 72/92/14
f 19/175/28 101/181/28 131/101/28 108/111/28
f 101/181/28 49/178/28 109/102/28 131/101/28
f 117/144/27 132/33/27 107/36/27 54/145/27
f 90/143/27 119/151/27 132/33/27 117/144/27
f 119/151/6 49/150/6 101/34/6 132/33/6
f 120/156/27 133/21/27 103/24/27 41/139/27
f 93/155/27 122/161/27 133/21/27 120/156/27
f 122/161/6 37/160/6 100/22/6 133/21/6
f 123/166/3 134/9/3 104/12/3 44/146/3
f 96/165/3 124/168/3 134/9/3 123/166/3
f 124/168/3 36/167/3 99/10/3 134/9/3
